<?xml version="1.0" standalone="no"?><!DOCTYPE svg PUBLIC "-//W3C//DTD SVG 1.1//EN" "http://www.w3.org/Graphics/SVG/1.1/DTD/svg11.dtd"><svg t="1555759468908" class="icon" style="" viewBox="0 0 1024 1024" version="1.1" xmlns="http://www.w3.org/2000/svg" p-id="1666" xmlns:xlink="http://www.w3.org/1999/xlink" width="200" height="200"><defs><style type="text/css"></style></defs><path d="M283.26084722 572.97995321c52.50737835-0.13738667 101.64877995-11.02470941 143.73106005-29.84437532 30.9516197-53.32122055 75.526656-97.75304818 128.97478428-128.50906682 5.87736178-16.96145067 9.01047979-34.74140046 9.01047979-53.06158307 0-17.11863011-2.79547221-33.73544903-7.95213483-49.65601963-29.86300416 92.44851997-141.07064547 161.38643001-273.76418816 161.73455474C150.55915463 473.98809486 39.38993493 405.63466126 9.5315877 313.34099285c-5.14734877 15.94734933-7.94398493 32.57231815-7.94398493 49.68745529C1.58760277 479.37761735 127.6760997 573.38047033 283.26084722 572.97995321z" p-id="1667"></path><path d="M283.26084722 722.30428672c33.94851499-0.08848611 66.49289045-4.66765938 96.63299697-12.97723278 1.00711538-36.775424 7.68085447-72.13040754 19.15963962-105.24295851-35.31772587 12.02600391-74.5148837 18.77542229-115.79263546 18.88370119-132.70169259 0.3457957-243.87091342-68.01113088-273.72925952-160.30247139-5.14734877 15.9450203-7.94398493 32.57115421-7.94398492 49.6932773C1.58760277 628.70078578 127.6760997 722.7094619 283.26084722 722.30428672z" p-id="1668"></path><path d="M283.26084722 869.66212608c43.41656235-0.11410091 84.53480675-7.57490347 121.26482204-20.79198094-11.53816349-28.98628949-19.31798301-59.87387278-22.75498211-92.06080967-30.66054542 8.6472192-63.84877682 13.42665045-98.50867598 13.5174656-132.70169259 0.3457957-243.87091342-68.00996693-273.72925952-160.3024714-5.14734877 15.9450203-7.94398493 32.57115421-7.94398493 49.6932773C1.58760277 776.06095303 127.6760997 870.06846521 283.26084722 869.66212608z" p-id="1669"></path><path d="M283.26084722 914.69938688c-132.70169259 0.3457957-243.87091342-68.00996693-273.72925952-160.30247139-5.14734877 15.9450203-7.94398493 32.57115421-7.94398493 49.69327729 0 116.3433472 126.08849693 210.35085824 281.67324445 209.94451911 73.42510307-0.19094414 140.28358201-21.38693632 190.42860601-55.93972053-19.92458126-21.42535794-37.21669177-45.33182805-51.32911161-71.22575019C381.32709149 904.45009806 333.85994581 914.56665714 283.26084722 914.69938688z" p-id="1670"></path><path d="M283.26084722 423.97812963c155.58474752-0.40866702 281.71632413-95.08099072 281.71632412-211.41968099 0-116.37478286-126.13506845-210.38578688-281.71632412-209.98410581C127.6760997 2.98300985 1.58760277 97.65766258 1.58760277 214.02662457 1.58760277 330.37113571 127.6760997 424.37864675 283.26084722 423.97812963zM145.63767979 113.37797405l134.9953536 26.432991 134.9953536-26.432991-20.09689657 90.24916707 47.59288832 90.25033102L280.63303339 267.44448114l-162.49134649 26.432991 47.59288832-90.25033102L145.63767979 113.37797405z" p-id="1671"></path><path d="M725.77330403 421.96972089c-162.65551189 0-294.51541959 131.85874375-294.51541958 294.5142545 0 162.65551189 131.85874375 294.51425451 294.51541958 294.51425451s294.51309056-131.85874375 294.51309056-294.51425451C1020.28639459 553.82962859 888.42881593 421.96972089 725.77330403 421.96972089zM885.03605931 875.74906083l-159.26392036-46.6486454-159.2650843 46.64748146 46.64748146-159.26392036-46.64748146-159.26392035 159.2650843 46.64748145 159.26392036-46.64748145-46.64748146 159.26392035L885.03605931 875.74906083z" p-id="1672"></path></svg>