<?xml version="1.0" standalone="no"?><!DOCTYPE svg PUBLIC "-//W3C//DTD SVG 1.1//EN" "http://www.w3.org/Graphics/SVG/1.1/DTD/svg11.dtd"><svg t="1567135682373" class="icon" viewBox="0 0 1024 1024" version="1.1" xmlns="http://www.w3.org/2000/svg" p-id="1393" xmlns:xlink="http://www.w3.org/1999/xlink" width="200" height="200"><defs><style type="text/css"></style></defs><path d="M716.48914899 1008.58358645c-112.93551882 0-204.47490907-91.54327387-204.47490908-204.47620361s91.53939026-204.47490907 204.47490908-204.47490908 204.44642924 91.54197934 204.44642924 204.47490908S829.42337328 1008.58488098 716.48785445 1008.58488098z m132.67463839-275.44796982c-11.40876578-11.41006032-29.92454669-11.41006032-41.30612717 0l-103.29509231 103.26531793-61.95660168-61.95919075c-11.41006032-11.40876578-29.8947723-11.40876578-41.30871625 0-11.40876578 11.41006032-11.40876578 29.89347777 0 41.30483263l82.61354888 82.61225433c11.41006032 11.41006032 29.9219576 11.41006032 41.33460702 0l123.91708696-123.91708696c11.41264941-11.41006032 11.41264941-29.89736139 0.00129455-41.30612718zM704.79170117 541.80933278c-0.99808901-0.08414498-1.88096411-0.59937122-2.9360128-0.59937121H263.72050489c-24.21822198 0-43.84471671 19.62649474-43.84471672 43.81623686 0 24.19103668 19.62520019 43.81623689 43.84601126 43.81623689h257.19109657c-22.67772144 25.30433959-40.47891722 54.94149878-52.05985659 87.63117922H263.72050489c-24.21822198 0-43.84471671 19.62778928-43.84471672 43.81623687 0 24.19233122 19.62520019 43.81623689 43.84601126 43.81623689h189.8699283c0 54.05732915 16.34484021 104.26470147 44.32757949 146.05498595H219.87449363c-64.52626015 0-116.81395547-52.31876425-116.81395548-116.84372986V249.10516781c0-64.52626015 52.2864008-116.84372987 116.81395548-116.84372986h58.4225122v116.84372986h408.97959254V132.26014341h58.42251219c64.5249656 0 116.81525002 52.31617517 116.81525001 116.84372985v336.43755141c-41.76309918-27.98403381-91.96917697-44.33146311-146.02391703-44.3314631-3.96905435 0-7.79053132 0.42849217-11.70003691 0.59937121z m40.90870393-132.04808185c0-24.18974213-19.62649474-43.81623689-43.84601127-43.81623688H263.72050489c-24.21822198 0-43.84471671 19.62520019-43.84471672 43.81623688s19.62520019 43.81623689 43.84601126 43.81623688h438.13388894c24.21692745 0.00129454 43.84601125-19.62520019 43.84601127-43.81623688zM453.59302226 190.68265561H336.71951803V73.8376312h58.42251219c0-32.26248281 26.18592016-58.42251219 58.44840296-58.42251218h58.42251221c32.26248281 0 58.42251219 26.16002939 58.42251219 58.42251218h58.4225122v116.84372987H453.59043318z m29.18148172-116.84372986c-16.08981618 0-29.18148172 13.06448023-29.18148172 29.2112561 0 16.14548133 13.09296009 29.20996157 29.18148172 29.20996156 16.14418678 0 29.23973595-13.06448023 29.23973593-29.20996156s-13.09554915-29.2112561-29.23973593-29.2112561z" p-id="1394"></path></svg>