<?xml version="1.0" standalone="no"?><!DOCTYPE svg PUBLIC "-//W3C//DTD SVG 1.1//EN" "http://www.w3.org/Graphics/SVG/1.1/DTD/svg11.dtd"><svg t="1567135671484" class="icon" viewBox="0 0 1024 1024" version="1.1" xmlns="http://www.w3.org/2000/svg" p-id="1282" xmlns:xlink="http://www.w3.org/1999/xlink" width="200" height="200"><defs><style type="text/css"></style></defs><path d="M364.8 307.77457778h318.15452445c21.45735111 0 42.11484445-9.08174222 55.88764444-25.5488 32.83285333-39.02122667 63.97041778-86.92394667 70.95637333-129.83637333 14.07089778-85.92611555-22.75555555-129.53827555-129.53827555-129.53827556s-70.656 70.05866667-112.17351112 75.84654222c-30.93617778 4.29169778-29.83822222-36.52608-78.44067555-75.74641778-34.92977778-28.04280889-74.04885333 51.19658667-120.15616 51.69493334-53.79072 0.69859555-129.43815111-14.17102222-129.43815111 77.74208 0 37.12568889 32.53475555 87.32444445 68.06186666 128.93866666 14.27228445 16.66730667 34.83079111 26.44764445 56.68636445 26.44764445z m396.89557333 81.83352889c-16.96540445-19.26144-41.61536-30.03960889-67.26428444-30.03960889H354.91953778c-24.54983111 0-48.20195555 9.88046222-65.16736 27.64458667-106.68487111 111.77301333-205.08444445 271.34976-205.08444445 387.71484444 0 102.59114667 103.09063111 232.12942222 230.23274667 232.12942222h394.20131555c127.14211555 0 230.23388445-128.44032 230.23388445-232.12942222 0-118.46087111-79.14040889-273.54567111-177.64124445-385.31982222z m-103.69024 141.21415111L589.74435555 654.67164445c-5.98812445 10.87715555 1.89553778 24.25059555 14.27114667 24.25059555h19.36042667c8.98161778 0 16.36693333 7.28519111 16.36693333 16.36693333 0 8.98161778-7.28519111 16.36579555-16.36693333 16.36579556h-48.70144c-9.48110222 0-17.06552889 7.58556445-17.16565334 17.06666666v8.08277334c0 8.98161778 7.28519111 16.36693333 16.36693334 16.36693333h49.50016c8.98161778 0 16.36579555 7.28519111 16.36579556 16.36693333s-7.28519111 16.36693333-16.36579556 16.36693334h-49.50016c-8.98161778 0-16.36693333 7.28519111-16.36693334 16.36579556v41.61649777c0 8.98161778-7.28519111 16.36693333-16.36693333 16.36693333h-29.63911111c-8.98275555 0-16.36693333-7.28632889-16.36693333-16.36693333V802.26986667c0-8.98161778-7.28519111-16.36579555-16.36693333-16.36579556h-49.00067556c-8.98161778 0-16.36693333-7.28519111-16.36693334-16.36693333s7.28519111-16.36693333 16.36693334-16.36693333h48.90168889c9.08060445 0 16.36579555-7.28519111 16.46592-16.36693334l0.10012444-7.98378666c0.09898667-9.48110222-7.58556445-17.26464-17.16565333-17.26464h-48.30208c-8.98161778 0-16.36693333-7.28519111-16.36693334-16.36693334 0-8.98161778 7.28519111-16.36693333 16.36693334-16.36693333h18.86208c12.47459555 0 20.25813333-13.37230222 14.27114666-24.25059556L394.63822222 530.72213333c-5.98812445-10.87715555 1.89553778-24.25059555 14.27114667-24.25059555h32.53361778c6.18723555 0 11.87612445 3.49297778 14.57038222 8.98161777l55.58727111 110.87644445c5.98812445 11.97511111 23.15377778 11.97511111 29.24088889 0l55.58727111-110.87644445c2.79438222-5.48864 8.38314667-8.98161778 14.57152-8.98161777h32.53361778c12.57358222 0.19911111 20.45838222 13.47242667 14.47025777 24.35072z" p-id="1283"></path></svg>