<?xml version="1.0" standalone="no"?><!DOCTYPE svg PUBLIC "-//W3C//DTD SVG 1.1//EN" "http://www.w3.org/Graphics/SVG/1.1/DTD/svg11.dtd"><svg t="1555759591677" class="icon" style="" viewBox="0 0 1024 1024" version="1.1" xmlns="http://www.w3.org/2000/svg" p-id="2141" xmlns:xlink="http://www.w3.org/1999/xlink" width="200" height="200"><defs><style type="text/css"></style></defs><path d="M742.765714 566.637714a254.317714 254.317714 0 0 0-141.824 391.753143c-61.001143 0-112.859429 0.073143-155.501714 0.219429-98.962286 0.438857-247.442286 1.536-445.366857 3.437714 2.340571-29.549714 6.948571-69.924571 13.970286-120.978286 17.773714-129.609143 87.405714-332.141714 309.979428-332.141714 1.024 0 43.154286 127.268571 126.390857 381.952 74.166857-254.610286 111.981714-381.952 113.371429-381.952 75.922286 0 134.217143 22.381714 178.980571 57.709714zM596.406857 347.062857c-24.722286 46.226286-56.027429 82.870857-69.12 92.818286-27.062857 20.48-47.030857 31.232-76.946286 31.232-28.745143 0-56.027429-10.386286-81.261714-31.232-19.163429-15.872-50.614857-51.126857-73.874286-94.866286-20.041143-4.534857-38.473143-38.034286-38.473142-66.194286 0-12.214857 3.437714-21.577143 8.996571-28.452571a168.521143 168.521143 0 0 1-0.438857-11.702857c0-38.253714-11.995429-66.340571-5.12-99.986286C276.553143 59.172571 335.067429-7.753143 450.413714 0.731429c28.379429 2.048 49.737143 10.825143 64.146286 26.331428 36.571429 2.633143 63.488 12.068571 80.822857 28.306286 27.209143 25.453714 46.226286 56.100571 46.226286 97.060571 0 26.404571-7.533714 63.926857-11.117714 88.941715 11.264 7.68 17.846857 22.674286 13.897142 43.300571-5.851429 30.134857-26.697143 61.147429-47.908571 62.390857zM445.513143 502.710857l47.323428 37.302857-47.177142 207.213715-47.250286-207.213715 47.104-37.302857z m363.739428 97.572572h2.925715a211.821714 211.821714 0 0 1 0 423.716571h-2.925715a211.821714 211.821714 0 0 1 0-423.716571z m-28.818285 243.419428a16.822857 16.822857 0 0 0 8.630857 1.828572l129.170286 1.609142a20.260571 20.260571 0 0 0 20.260571-20.187428l0.219429-11.702857a20.406857 20.406857 0 0 0-11.702858-18.285715 22.308571 22.308571 0 0 0-9.289142-2.121142l-96.548572-1.609143 0.731429-95.012572a20.406857 20.406857 0 0 0-11.702857-18.285714 22.308571 22.308571 0 0 0-9.362286-2.121143l-11.849143-0.146286a20.260571 20.260571 0 0 0-20.260571 20.114286l-0.658286 127.341714c0.365714 7.314286 5.266286 15.140571 12.361143 18.578286z" p-id="2142"></path></svg>