<?xml version="1.0" standalone="no"?><!DOCTYPE svg PUBLIC "-//W3C//DTD SVG 1.1//EN" "http://www.w3.org/Graphics/SVG/1.1/DTD/svg11.dtd"><svg t="1555759069642" class="icon" style="" viewBox="0 0 1102 1024" version="1.1" xmlns="http://www.w3.org/2000/svg" p-id="2597" xmlns:xlink="http://www.w3.org/1999/xlink" width="215.234375" height="200"><defs><style type="text/css"></style></defs><path d="M1096.388923 688.600615c-3.623385-19.219692-15.911385-31.586462-31.665231-31.586461h-2.205538a54.823385 54.823385 0 0 1-54.744616-54.744616c0-7.955692 3.387077-17.723077 4.726154-20.795076a40.172308 40.172308 0 0 0-14.966154-48.994462l-63.960615-35.446154a43.323077 43.323077 0 0 0-46.867692 9.373539c-7.955692 8.192-29.144615 25.206154-43.795693 25.206153-14.651077 0-36.076308-17.408-44.110769-25.757538a43.165538 43.165538 0 0 0-46.552615-9.767385l-1.260308 0.551385-65.142154 35.84-1.575384 0.945231a39.699692 39.699692 0 0 0-13.469539 47.891692 63.172923 63.172923 0 0 1 4.726154 20.952615 54.823385 54.823385 0 0 1-54.744615 54.744616H618.338462c-15.438769 0-27.726769 12.366769-31.428924 31.507692a326.656 326.656 0 0 0-5.356307 50.963692c0 21.425231 4.804923 47.891692 5.356307 50.806154 3.702154 19.298462 15.990154 31.586462 31.744 31.586462h2.205539c30.247385 0 54.744615 24.654769 54.744615 54.823384a62.227692 62.227692 0 0 1-4.726154 20.716308 40.172308 40.172308 0 0 0 14.808616 48.994462l62.857846 35.052307a42.535385 42.535385 0 0 0 47.104-9.924923c7.798154-8.428308 29.696-26.781538 44.819692-26.781538 15.123692 0 36.864 18.353231 44.898462 27.332923a42.535385 42.535385 0 0 0 48.758154 9.452308l63.488-35.131077 1.575384-0.945231a39.699692 39.699692 0 0 0 13.548308-47.891692 63.172923 63.172923 0 0 1-4.883692-20.873847c0-30.247385 24.497231-54.823385 54.744615-54.823384h2.520615c15.438769 0 27.726769-12.366769 31.350154-31.507692 0-0.236308 5.513846-28.356923 5.513846-50.884924 0-21.425231-4.883692-47.970462-5.513846-50.884923z m-255.763692 147.298462a96.886154 96.886154 0 0 1 0-193.536 96.886154 96.886154 0 0 1 0 193.614769zM678.439385 455.916308a331.224615 331.224615 0 0 0-97.516308 501.602461H93.499077C42.141538 957.44 0 925.774769 0 874.180923v-22.528c0-47.340308 34.894769-89.324308 79.320615-105.314461l190.54277-84.913231s51.593846-15.753846 65.772307-31.744c9.452308-10.555077 12.288-45.292308 0.315077-68.056616-11.894154-23.000615-108.307692-148.48-108.307692-253.952C227.564308 137.846154 339.180308 0 477.026462 0c137.688615 0 249.462154 137.767385 249.462153 307.672615 0 50.412308-22.685538 102.872615-48.206769 148.086154h0.157539z" p-id="2598"></path></svg>