<?xml version="1.0" standalone="no"?><!DOCTYPE svg PUBLIC "-//W3C//DTD SVG 1.1//EN" "http://www.w3.org/Graphics/SVG/1.1/DTD/svg11.dtd"><svg t="1555746574689" class="icon" style="" viewBox="0 0 1046 1024" version="1.1" xmlns="http://www.w3.org/2000/svg" p-id="20820" xmlns:xlink="http://www.w3.org/1999/xlink" width="204.296875" height="200"><defs><style type="text/css"></style></defs><path d="M1006.303808 555.233941L807.41632 683.145139l62.143093 25.227136a401.237232 401.237232 0 0 1-697.733763-8.418909H42.331283c76.00692 189.566023 262.835688 324.031838 481.07631 324.031838a517.859102 517.859102 0 0 0 455.819581-271.225006l67.573215 27.550104z m-829.018443-239.694785A401.237232 401.237232 0 0 1 875.004331 324.032045h129.479572C928.462186 134.480818 741.648214 0.000207 523.407593 0.000207A517.859102 517.859102 0 0 0 67.588011 271.240009L0 243.704701l40.511378 225.061566 198.887487-127.881607z m0 0" fill="" p-id="20821"></path><path d="M736.04054 528.320063q-20.936304-34.681764-66.877804-58.118587t-152.191392-46.3114q-42.908326-8.877585-54.345614-19.308746-11.836779-10.002079-11.836779-22.534269 0-17.16333 14.307707-29.14807t42.553222-11.984739q34.32666 0 53.827755 16.09802t25.567443 51.504787l152.709252-8.877585c-6.68778-54.36041-27.328165-93.998825-62.4834-118.915246C651.022871 262.022117 615.512533 250.348093 571.894001 245.613381v-34.208292h-87.296249v33.172574c-36.353709 2.5745-66.419129 8.995952-89.915136 19.234767q-47.036402 20.566404-70.38445 56.505826t-23.37764 76.362023q0 61.506865 45.793541 101.219261 45.408845 39.697599 151.999044 63.62269 65.102287 14.307707 82.975825 30.405727t17.888333 36.472077q0 21.468959-18.776092 37.729734t-53.457855 16.275572q-46.488951 0-71.52374-31.826141-15.373017-19.66385-20.388853-57.216032l-154.144461 9.646975q6.791352 79.395198 58.133384 130.899985 43.396593 43.396593 145.1781 50.173149v32.092468h87.296249v-33.098594c29.088886-3.210726 56.905317-9.691363 79.483974-19.604666 33.379718-14.662811 59.183897-36.176157 77.826825-64.54004a166.158792 166.158792 0 0 0 27.831228-92.992699q0-42.908326-20.995488-77.604886z m0 0" fill="" p-id="20822"></path></svg>