<?xml version="1.0" standalone="no"?><!DOCTYPE svg PUBLIC "-//W3C//DTD SVG 1.1//EN" "http://www.w3.org/Graphics/SVG/1.1/DTD/svg11.dtd"><svg t="1555758628241" class="icon" style="" viewBox="0 0 1025 1024" version="1.1" xmlns="http://www.w3.org/2000/svg" p-id="2135" xmlns:xlink="http://www.w3.org/1999/xlink" width="200.1953125" height="200"><defs><style type="text/css"></style></defs><path d="M1024 473.088c-3.072-1.024-7.168-2.048-10.24-2.048H657.408L549.888 252.928c-14.336-27.648-54.272-28.672-67.584 0L332.8 551.936 299.008 491.52c-6.144-12.288-19.456-20.48-32.768-20.48H2.048V142.336C1.024 65.536 26.624 38.912 102.4 38.912h821.248c80.896 0 101.376 31.744 101.376 103.424l-1.024 330.752z m0 72.704v348.16c0 77.824-18.432 104.448-101.376 104.448H102.4C20.48 998.4 2.048 964.608 2.048 893.952V547.84H243.712l57.344 104.448c14.336 26.624 53.248 26.624 67.584-1.024l147.456-295.936 84.992 171.008c6.144 13.312 19.456 21.504 33.792 21.504h378.88c3.072 0 7.168-1.024 10.24-2.048z m0 0" p-id="2136"></path></svg>