<?xml version="1.0" standalone="no"?><!DOCTYPE svg PUBLIC "-//W3C//DTD SVG 1.1//EN" "http://www.w3.org/Graphics/SVG/1.1/DTD/svg11.dtd"><svg t="1555746549700" class="icon" style="" viewBox="0 0 1024 1024" version="1.1" xmlns="http://www.w3.org/2000/svg" p-id="20488" xmlns:xlink="http://www.w3.org/1999/xlink" width="200" height="200"><defs><style type="text/css"></style></defs><path d="M464.391574 1023.837117C269.257527 1023.837117 47.550253 1003.150953 47.550253 909.8887V843.50217c0-87.026155 132.703252-165.44277 277.878701-195.134047a62.826369 62.826369 0 0 0 34.345082-63.98982 273.178358 273.178358 0 0 1-56.985843-117.089735 88.58518 88.58518 0 0 1-26.922263-18.731566 163.511441 163.511441 0 0 1-26.922262-98.334901c4.281501-35.531802 12.472198-23.036335 14.426796-28.87686a279.437726 279.437726 0 0 1 23.036335-230.270276c74.530688-132.679983 234.156202-93.262254 258.751562-43.699229 153.76172-28.87686 147.525621 209.560843 126.443884 273.178358 0 0 14.426796 0 10.540869 60.103892a146.734474 146.734474 0 0 1-51.913196 97.17145 294.260095 294.260095 0 0 1-53.867794 106.548867c-5.584566 9.377417-7.795124 20.406935-6.236099 31.227033a291.909923 291.909923 0 0 0-45.653827 159.625514 300.891767 300.891767 0 0 0 117.066466 238.437703c-56.194696 4.281501-117.066467 10.145295-178.357079 10.145295h1.163451z m326.650578-418.842457a185.966051 185.966051 0 1 1 0 371.955371 185.966051 185.966051 0 0 1 0-371.955371z m74.042039 243.719772a18.87118 18.87118 0 1 0 0-37.742359h-51.587429V772.764333h47.003431a18.87118 18.87118 0 1 0 0-37.765628H836.602904l25.06074-40.883678a18.87118 18.87118 0 0 0-32.553366-19.150408l-35.392188 60.034086h-1.349603l-35.950644-60.476197a18.87118 18.87118 0 0 0-32.530098 19.173677l25.246893 41.30252H717.000114a18.87118 18.87118 0 1 0 0 37.765628h58.73102v38.161202H721.653919a18.87118 18.87118 0 1 0 0 37.765628h54.100484v49.097643a18.87118 18.87118 0 1 0 37.765628 0v-49.097643h51.587429z" p-id="20489"></path></svg>