<?xml version="1.0" standalone="no"?><!DOCTYPE svg PUBLIC "-//W3C//DTD SVG 1.1//EN" "http://www.w3.org/Graphics/SVG/1.1/DTD/svg11.dtd"><svg t="1567135699269" class="icon" viewBox="0 0 1024 1024" version="1.1" xmlns="http://www.w3.org/2000/svg" p-id="1850" xmlns:xlink="http://www.w3.org/1999/xlink" width="200" height="200"><defs><style type="text/css"></style></defs><path d="M940.8 684.8v-12.8l-57.6 64 12.8 12.8c25.6-12.8 44.8-38.4 44.8-64z m-896 108.8v-51.2c12.8 6.4 25.6 19.2 44.8 25.6 51.2 19.2 121.6 32 198.4 32 57.6 0 115.2-6.4 160-19.2l32-32-19.2-19.2c-44.8 12.8-102.4 25.6-172.8 25.6-147.2 0-243.2-44.8-243.2-76.8v-64c12.8 6.4 32 19.2 51.2 25.6 51.2 19.2 121.6 32 198.4 32 44.8 0 83.2-6.4 121.6-12.8l-38.4-44.8c-25.6 6.4-57.6 6.4-89.6 6.4C140.8 620.8 44.8 576 44.8 544v-64c12.8 6.4 25.6 19.2 44.8 25.6 51.2 19.2 121.6 32 198.4 32h57.6l96-64c-38.4 12.8-89.6 19.2-153.6 19.2C140.8 492.8 44.8 448 44.8 416s96-76.8 243.2-76.8c32 0 64 0 89.6 6.4 96 12.8 147.2 44.8 153.6 70.4l19.2-12.8 25.6 25.6v-12.8c0-12.8 0-19.2-6.4-32 25.6 0 51.2 6.4 76.8 6.4 76.8 0 140.8-12.8 198.4-32 19.2-6.4 32-12.8 44.8-25.6v70.4c0 12.8-12.8 25.6-38.4 38.4l83.2 64V115.2c0-38.4-32-70.4-96-89.6-44.8-12.8-115.2-25.6-185.6-25.6C576 0 505.6 12.8 454.4 32c-57.6 19.2-96 51.2-96 89.6v172.8c-25.6 0-44.8-6.4-70.4-6.4-76.8 0-140.8 12.8-198.4 32-57.6 25.6-89.6 57.6-89.6 96v377.6c0 38.4 32 70.4 96 89.6 51.2 19.2 121.6 32 198.4 32h32l44.8-51.2c-25.6 0-51.2 6.4-76.8 6.4-153.6 0-249.6-44.8-249.6-76.8zM652.8 44.8c147.2 0 243.2 44.8 243.2 76.8s-96 76.8-243.2 76.8-243.2-44.8-243.2-76.8S499.2 44.8 652.8 44.8zM409.6 192c12.8 6.4 25.6 12.8 44.8 25.6 51.2 12.8 121.6 25.6 198.4 25.6 76.8 0 140.8-12.8 198.4-32 12.8-6.4 32-12.8 44.8-19.2v76.8c0 32-96 76.8-243.2 76.8s-243.2-44.8-243.2-76.8V192z m384 550.4l147.2-147.2-147.2-108.8-115.2 134.4-128-134.4-140.8 96 153.6 160-185.6 204.8L512 1024l160-166.4L832 1024l147.2-83.2-185.6-198.4z m-166.4-256l44.8 44.8 44.8-51.2c-19.2 0-44.8 6.4-70.4 6.4h-19.2z" p-id="1851"></path></svg>