<?xml version="1.0" standalone="no"?><!DOCTYPE svg PUBLIC "-//W3C//DTD SVG 1.1//EN" "http://www.w3.org/Graphics/SVG/1.1/DTD/svg11.dtd"><svg t="1567135660663" class="icon" viewBox="0 0 1034 1024" version="1.1" xmlns="http://www.w3.org/2000/svg" p-id="1171" xmlns:xlink="http://www.w3.org/1999/xlink" width="201.953125" height="200"><defs><style type="text/css"></style></defs><path d="M1011.982 821.18466667L606.673 119.23166667c-49.575-85.822-130.595-85.822-180.157 0L21.205 821.18466667c-49.562 85.91-9.015 155.99 90.04 155.99l810.693 0C1020.997 977.17366667 1061.502 907.08966667 1011.982 821.18466667zM460.924 318.40366667c14.565-15.747 33.082-23.622 55.665-23.622 22.595 0 41.095 7.792 55.675 23.307 14.485 15.55 21.725 34.997 21.725 58.382 0 20.12-30.235 168.07-40.32 275.704l-72.825 0c-8.845-107.635-41.652-255.584-41.652-275.704C439.194 353.44066667 446.446 334.07366667 460.924 318.40366667zM571.244 830.20466667c-15.32 14.92-33.55 22.355-54.65 22.355-21.095 0-39.33-7.435-54.647-22.355-15.275-14.885-22.867-32.915-22.867-54.09 0-21.065 7.592-39.29 22.867-54.565 15.317-15.28 33.552-22.92 54.647-22.92 21.1 0 39.33 7.64 54.65 22.92 15.265 15.275 22.875 33.5 22.875 54.565C594.119 797.28966667 586.509 815.31966667 571.244 830.20466667z" p-id="1172"></path></svg>