<?xml version="1.0" standalone="no"?><!DOCTYPE svg PUBLIC "-//W3C//DTD SVG 1.1//EN" "http://www.w3.org/Graphics/SVG/1.1/DTD/svg11.dtd"><svg t="1567135636050" class="icon" viewBox="0 0 1024 1024" version="1.1" xmlns="http://www.w3.org/2000/svg" p-id="1054" xmlns:xlink="http://www.w3.org/1999/xlink" width="200" height="200"><defs><style type="text/css"></style></defs><path d="M926.25224691 983.57933259h-828.50449382c-27.61681602 0-55.23363335-16.57008987-71.80372323-44.18690591-16.57008987-27.61681602-16.57008987-60.75699579 0-88.3738131l414.25224691-756.70077061c16.57008987-27.61681602 44.18690591-44.18690591 71.80372323-44.18690591s55.23363335 16.57008987 71.80372323 44.18690591l414.25224691 762.22413432c16.57008987 27.61681602 16.57008987 60.75699579 0 88.37381311-16.57008987 22.0934536-38.66354348 38.66354348-71.80372323 38.66354219zM512 359.43928098c-16.57008987 0-33.14017975 16.57008987-33.14017975 33.14017977v248.55134815c0 16.57008987 16.57008987 33.14017975 33.14017975 33.14017974s33.14017975-16.57008987 33.14017975-33.14017974v-248.55134815c0-16.57008987-16.57008987-33.14017975-33.14017975-33.14017977z m0 403.20552077c-22.0934536 0-33.14017975 16.57008987-33.14017975 33.14017975s16.57008987 33.14017975 33.14017975 33.14017977 33.14017975-16.57008987 33.14017975-33.14017977-11.04672615-33.14017975-33.14017975-33.14017975z" p-id="1055"></path></svg>