<?xml version="1.0" standalone="no"?><!DOCTYPE svg PUBLIC "-//W3C//DTD SVG 1.1//EN" "http://www.w3.org/Graphics/SVG/1.1/DTD/svg11.dtd"><svg t="1557500834673" class="icon" style="" viewBox="0 0 1365 1024" version="1.1" xmlns="http://www.w3.org/2000/svg" p-id="9679" xmlns:xlink="http://www.w3.org/1999/xlink" width="266.6015625" height="200"><defs><style type="text/css"></style></defs><path d="M136.533333 68.266667v750.933333h1092.266667V68.266667H136.533333z m0-68.266667h1092.266667a68.266667 68.266667 0 0 1 68.266667 68.266667v750.933333a68.266667 68.266667 0 0 1-68.266667 68.266667H136.533333a68.266667 68.266667 0 0 1-68.266666-68.266667V68.266667a68.266667 68.266667 0 0 1 68.266666-68.266667z"  p-id="9680"></path><path d="M68.266667 887.466667v68.266666h1228.8v-68.266666H68.266667z m0-68.266667h1228.8a68.266667 68.266667 0 0 1 68.266666 68.266667v68.266666a68.266667 68.266667 0 0 1-68.266666 68.266667H68.266667a68.266667 68.266667 0 0 1-68.266667-68.266667v-68.266666a68.266667 68.266667 0 0 1 68.266667-68.266667z"  p-id="9681"></path><path d="M473.4976 331.502933v56.251734l-202.069333 85.742933 202.069333 85.742933v56.251734l-275.797333-119.057067V450.56l275.797333-119.057067z m418.338133 0l275.797334 119.057067v45.8752l-275.797334 119.057067v-56.251734l202.069334-85.742933-202.069334-85.742933v-56.251734z"  p-id="9682"></path><path d="M736.597333 213.674667a34.133333 34.133333 0 1 1 64.512 22.528L635.562667 710.0416a34.133333 34.133333 0 0 1-64.443734-22.528l165.546667-473.9072z"  p-id="9683"></path></svg>