<?xml version="1.0" standalone="no"?><!DOCTYPE svg PUBLIC "-//W3C//DTD SVG 1.1//EN" "http://www.w3.org/Graphics/SVG/1.1/DTD/svg11.dtd"><svg t="1555759316930" class="icon" style="" viewBox="0 0 1024 1024" version="1.1" xmlns="http://www.w3.org/2000/svg" p-id="1658" xmlns:xlink="http://www.w3.org/1999/xlink" width="200" height="200"><defs><style type="text/css"></style></defs><path d="M965.152 438.31466667C962.13333333 190.51733333 760.53333333-9.48266667 512-9.48266667S61.86666667 190.51733333 58.816 438.31466667a180.97066667 180.97066667 0 0 0-68.26666667 141.696c0 100.16 81.22666667 181.39733333 181.33333334 181.39733333a180.704 180.704 0 0 0 115.11466666-41.22666667l-85.44-318.93333333a183.712 183.712 0 0 0-29.67466666-2.624 179.2 179.2 0 0 0-19.69066667 1.13066667C174.048 220.33066667 326.656 81.216 512 81.216s337.952 139.11466667 359.79733333 318.53866667a180.05333333 180.05333333 0 0 0-19.69066666-1.13066667 184.87466667 184.87466667 0 0 0-29.70666667 2.624L736.98133333 720a180.832 180.832 0 0 0 85.80266667 38.80533333 363.2 363.2 0 0 1-158.77333333 99.936l-7.46666667 7.46666667c-19.2-35.30666667-56.16-59.53066667-99.2-59.53066667a113.376 113.376 0 0 0 0 226.752c51.40266667 0 94.272-34.42133333 108.192-81.29066666A454.272 454.272 0 0 0 955.73333333 728.77866667a181.13066667 181.13066667 0 0 0 9.49333334-290.464z" p-id="1659"></path></svg>