<?xml version="1.0" standalone="no"?><!DOCTYPE svg PUBLIC "-//W3C//DTD SVG 1.1//EN" "http://www.w3.org/Graphics/SVG/1.1/DTD/svg11.dtd"><svg t="1555746570579" class="icon" style="" viewBox="0 0 1024 1024" version="1.1" xmlns="http://www.w3.org/2000/svg" p-id="20709" xmlns:xlink="http://www.w3.org/1999/xlink" width="200" height="200"><defs><style type="text/css"></style></defs><path d="M718.225408 688.128c0 16.027648 14.67392 30.72 33.015808 30.72h217.669632c18.343936 0 33.017856-13.357056 33.017856-30.72 0-16.027648-14.67392-30.72-33.017856-30.72H751.241216c-18.341888 1.335296-33.015808 14.692352-33.015808 30.72zM341.641216 275.89632h220.116992c52.5824 0 94.158848-94.830592 111.280128-138.9056 7.335936-17.362944 9.783296-37.39648 6.11328-56.096768-4.890624-30.72-22.011904-52.09088-78.262272-53.426176-75.81696-4.005888-92.93824 56.096768-147.968 56.096768-56.250368 0-83.152896-48.082944-151.63392-57.432064-48.914432-8.013824-68.481024 16.027648-75.81696 46.747648-4.892672 21.368832-3.670016 45.410304 4.890624 65.445888 17.12128 44.077056 59.920384 137.570304 111.280128 137.570304zM989.390848 790.528H771.721216c-18.341888 0-33.015808 13.357056-33.015808 30.72 0 16.027648 14.67392 30.72 33.015808 30.72h217.669632c18.343936 0 33.017856-13.357056 33.017856-30.72s-14.67392-30.72-33.017856-30.72zM933.2736 923.648H714.377216c-18.341888 0-33.015808 13.357056-33.015808 30.72s14.67392 30.72 33.015808 30.72h217.669632c18.343936 0 33.017856-13.357056 33.017856-30.72s-14.67392-30.72-31.793152-30.72z" p-id="20710"></path><path d="M718.585856 879.939584l-36.560896 1.3312v1.333248c-30.255104 6.660096-52.948992 34.63168-52.948992 69.261312 0 18.64704 7.565312 35.96288 17.649664 47.947776H123.5456C55.47008 999.81312 0 927.889408 0 854.634496c0 0 65.55648-551.419904 327.776256-551.419904h239.527936c146.23744 0 231.964672 166.49216 278.60992 316.99968h-144.97792v1.3312c-28.995584 6.660096-50.427904 34.63168-50.427904 69.261312 0 33.298432 21.43232 62.601216 50.427904 69.259264v1.3312h17.649664v1.333248c-26.474496 5.328896-45.38368 29.302784-45.38368 58.605568s20.168704 53.276672 45.38368 58.60352z m-122.28608-153.16992h-117.243904v-38.62528h113.461248c16.388096 0 28.995584-13.320192 28.995584-30.636032s-12.607488-30.633984-28.995584-30.633984h-74.379264l81.942528-154.503168c8.82688-14.651392 3.782656-33.30048-10.084352-41.289728-13.867008-9.324544-31.51872-3.995648-39.081984 10.653696l-98.332672 185.1392h-5.042176l-98.332672-185.1392c-7.563264-14.649344-25.212928-18.64704-39.079936-10.653696-13.867008 7.991296-17.649664 26.638336-10.0864 41.28768l81.944576 154.505216h-79.42144c-16.390144 0-28.997632 13.318144-28.997632 30.633984s12.607488 30.633984 28.995584 30.633984h118.503424v38.62528h-118.503424c-16.388096 0-28.995584 13.320192-28.995584 30.636032 0 17.313792 12.607488 30.633984 28.995584 30.633984h118.503424v79.915008c0 17.31584 12.607488 30.633984 28.995584 30.633984 16.390144 0 28.995584-13.318144 28.995584-30.633984v-79.915008h117.243904c13.867008 0 27.734016-11.986944 28.995584-27.971584 1.25952-18.64704-12.607488-33.296384-28.995584-33.296384z" p-id="20711"></path></svg>