<?xml version="1.0" standalone="no"?><!DOCTYPE svg PUBLIC "-//W3C//DTD SVG 1.1//EN" "http://www.w3.org/Graphics/SVG/1.1/DTD/svg11.dtd"><svg t="1567135689229" class="icon" viewBox="0 0 1024 1024" version="1.1" xmlns="http://www.w3.org/2000/svg" p-id="1504" xmlns:xlink="http://www.w3.org/1999/xlink" width="200" height="200"><defs><style type="text/css"></style></defs><path d="M716.48914899 1008.58358645c-112.93551882 0-204.47490907-91.54327387-204.47490908-204.47620361s91.5406848-204.47490907 204.47490908-204.47490908c112.93551882 0 204.47490907 91.54197934 204.47490909 204.47490908S829.42337328 1008.58488098 716.48914899 1008.58488098z m103.29250324-266.43539436c11.38287502-11.41006032 11.38287502-29.92454669 0-41.30742172-11.40876578-11.40876578-29.92325215-11.40876578-41.33331248 0l-61.95660167 61.95789621-61.98896514-61.95660167c-11.41006032-11.41006032-29.8947723-11.41006032-41.30612717 0-11.41006032 11.38158048-11.41006032 29.8947723 0 41.30612718l61.95660168 61.95789621-61.95660168 61.95789621c-11.41006032 11.41006032-11.41006032 29.89606685 0 41.30742171s29.8947723 11.41006032 41.30612717 0l61.9876706-61.95789621 61.95789621 61.95660167c11.41006032 11.41135486 29.92454669 11.41135486 41.33460701 0 11.38158048-11.40876578 11.38158048-29.8947723 0-41.30612717l-61.98767059-61.95660167 61.98637606-61.95919075z m-114.98865652-200.33885931c-0.99808901-0.08414498-1.88355318-0.59937122-2.9088275-0.59937121H263.69461413c-24.19103668 0-43.78775703 19.62649474-43.78775704 43.81623686 0 24.19103668 19.59672035 43.81623689 43.78775704 43.81623689h257.24805625c-22.70620128 25.30433959-40.50610252 54.94149878-52.08963097 87.63117922H263.69461413c-24.19103668 0-43.78775703 19.62520019-43.78775704 43.81623687s19.59672035 43.81623689 43.78775704 43.81623689H453.59043318c0 54.05732915 16.34484021 104.26470147 44.33016858 146.05498595h-278.01503921c-64.52755469 0-116.87350423-52.31876425-116.87350424-116.84372986V249.10516781c0-64.5249656 52.34594955-116.84372987 116.87350424-116.84372986h58.4225122v116.84372986h408.92133832V132.26014341h58.42121765c64.55344545 0 116.87091517 52.31617517 116.87091515 116.84372985v336.43755141c-41.78898995-27.98403381-91.99506773-44.33146311-146.05239688-44.3314631-3.96775981 0-7.78923678 0.42849217-11.69744782 0.59937121z m40.87763501-132.04808185c0-24.18844761-19.59672035-43.81494235-43.78775703-43.81494234H263.69461413c-24.19103668 0-43.78775703 19.62520019-43.78775704 43.81494234 0 24.19103668 19.59672035 43.81623689 43.78775704 43.81623688H701.88287369c24.19103668 0 43.78775703-19.62520019 43.78775703-43.81623688zM453.59043318 190.68265561h-116.84372985V73.8376312h58.42121765c0-32.26248281 26.15873485-58.42251219 58.4225122-58.42251218h58.42251221c32.26118827 0 58.42251219 26.16002939 58.42251219 58.42251218h58.39273781v116.84372987H453.59043318z m29.18148172-116.84372986c-16.11700148 0-29.18148172 13.06448023-29.18148172 29.2112561 0 16.14548133 13.06448023 29.2112561 29.18148172 29.2112561 16.14548133 0 29.23973595-13.06577477 29.23973595-29.2112561 0-16.14548133-13.09296009-29.2112561-29.23973595-29.2112561z" fill="" p-id="1505"></path></svg>