<?xml version="1.0" standalone="no"?><!DOCTYPE svg PUBLIC "-//W3C//DTD SVG 1.1//EN" "http://www.w3.org/Graphics/SVG/1.1/DTD/svg11.dtd"><svg t="1555759978712" class="icon" style="" viewBox="0 0 1024 1024" version="1.1" xmlns="http://www.w3.org/2000/svg" p-id="2206" xmlns:xlink="http://www.w3.org/1999/xlink" width="200" height="200"><defs><style type="text/css"></style></defs><path d="M495.734 577.058c63.092 22.38 171.313-92.078 234.324-166.689 62.967-74.674 60.367-116.977 42.734-144.393-17.547-27.375-27.622 0-27.622 0s22.668-92.326-37.865-169.457C605.814-33.03 398.082-28.736 320.002 92.183c-70.37 109.226-44.956 162.909-39.373 172.284-5.283-7.93-30.854-42.887-44.324 1.508-15.154 49.837 10.033 69.719 63.009 131.882 52.854 62.225 133.453 156.781 196.42 179.201z m175.361 28.201l-94.72 217.457-33.156-96.021s2.56-17.775 17.796-50.581c15.484-33.031 17.961-48.227-12.675-68.335-30.764-20.274-71.682-7.681-84.439 25.229-12.843 32.866 22.999 50.622 22.999 70.854 0 20.211-25.519 113.837-25.519 113.837s2.52 25.291-30.719-45.563c-33.28-70.751-69.081-174.598-69.081-174.598-181.43 64.124-273.715 172.058-273.715 363.625 0 75.169 831.798 104.651 847.611-40.59 15.113-140.077-235.519-381.688-264.382-315.314z" p-id="2207"></path></svg>