<?xml version="1.0" standalone="no"?><!DOCTYPE svg PUBLIC "-//W3C//DTD SVG 1.1//EN" "http://www.w3.org/Graphics/SVG/1.1/DTD/svg11.dtd"><svg t="1555758742527" class="icon" style="" viewBox="0 0 1024 1024" version="1.1" xmlns="http://www.w3.org/2000/svg" p-id="1657" xmlns:xlink="http://www.w3.org/1999/xlink" width="200" height="200"><defs><style type="text/css"></style></defs><path d="M345.70024505 575.13273458l-36.65550108 36.67878684c-105.65511851-49.21009493-231.19872569-3.45213497-280.40882063 102.20298468a211.04361358 211.04361358 0 0 0 0 178.20583595l108.94308807-108.8976805 102.26469206 102.23092736-108.95356701 108.8976805c105.69121223 49.13208661 231.20105472 3.28214755 280.33314133-102.40906468a211.03779271 211.03779271 0 0 0-0.00349297-177.93106262l36.57749276-36.58797169-102.09703253-102.39043584z m332.97557732-128.6615882l36.64502214-36.6671451c105.67374734 49.17050823 231.19988963 3.36597675 280.37039901-102.30777059a211.03662877 211.03662877 0 0 0-0.01746375-178.09988495l-108.94308807 108.8976805-102.23092736-102.23092736 108.953567-108.8976805c-105.66559744-49.18797312-231.19872569-3.40323442-280.38669881 102.26119908a211.03662877 211.03662877 0 0 0-0.02095786 178.07892821l-36.48667876 36.64502215 102.11682646 102.32057856z m123.11023046 307.49148729L586.78383502 538.58900651l45.04541184-45.04541184L178.28858766 39.20306517c-37.87684637-37.79534621-99.22122411-37.73014585-137.01657031 0.14670166s-37.73014585 99.22122411 0.14670166 137.01657031L494.87904085 630.67310194l44.98952534-45.04541184 214.95681024 215.33986361 16.72276992 70.12432668 139.57336178 139.85512107 100.22601158-100.37271211-139.61877048-139.84347818-69.9426964-16.7681775z" fill="" p-id="1658"></path></svg>