<?xml version="1.0" standalone="no"?><!DOCTYPE svg PUBLIC "-//W3C//DTD SVG 1.1//EN" "http://www.w3.org/Graphics/SVG/1.1/DTD/svg11.dtd"><svg t="1567135703227" class="icon" viewBox="0 0 1059 1024" version="1.1" xmlns="http://www.w3.org/2000/svg" p-id="1961" xmlns:xlink="http://www.w3.org/1999/xlink" width="206.8359375" height="200"><defs><style type="text/css"></style></defs><path d="M508.02639875 513.4776275c-7.26391406-27.55167562-78.4310775-103.74277969-105.88675406-192.18973875L317.62863875 322.05587937l114.23865563 191.42174719-90.62293407 2.65596844 0 76.57509937 128.70248531-2.65596843-0.76799062 57.79132031L356.47618156 647.84404625l-15.23182031 66.23922094 132.92643562-0.38399532 1.5039825 78.8470725 76.15910344 1e-8-1.5039825-78.8470725 114.23865563 0 1.5039825-63.16725657-120.70257938-2.68796812 0.76799063-57.79132031 120.73457906 1.53598218 0-76.57509937-82.65502781-1.53598219 114.27065531-191.42174719-76.15910344 0L508.02639875 513.4776275zM984.0527975 513.4776275c0-258.42895875-228.50931094-478.55436937-476.02639875-478.55436937C250.97342375 34.92325812 32 255.04866781 32 513.4776275c0 145.0862925 74.27112562 283.29266625 187.00579969 373.62760406L184.31820781 991.99999719l94.84688438-63.55125188C347.708285 968.67227094 425.75536719 991.99999719 508.02639875 991.99999719c79.99905844 0 158.01414094-24.09571688 226.97332969-65.08723406L831.73458969 991.99999719l-35.80757907-107.58273375C907.89369406 794.08232563 984.0527975 657.02793781 984.0527975 513.4776275zM238.81356687 268.07251531c65.47122937-73.11913969 161.08610437-118.27060875 269.21283188-118.27060875 194.23771406 0 361.78774313 159.61412156 361.78774313 363.67572094 0 195.26170219-167.55002813 363.67572094-361.78774313 363.67572094-202.97361188 0-361.78774313-168.4460175-361.78774313-363.67572094C146.23865562 418.11874906 180.89424781 332.39175781 238.81356687 268.07251531zM965.01302187 207.20923062c70.079175-36.38357156-1.88797781-241.94915344-152.31820781-153.15019781C812.69481406 54.05903281 880.85401156 127.56216781 965.01302187 207.20923062zM78.07945813 207.20923062C162.2384675 127.56216781 230.39766594 54.05903281 230.39766594 54.05903281 79.61543937-34.70792219 8.00028219 170.82565906 78.07945813 207.20923062z" p-id="1962"></path></svg>