<?xml version="1.0" standalone="no"?><!DOCTYPE svg PUBLIC "-//W3C//DTD SVG 1.1//EN" "http://www.w3.org/Graphics/SVG/1.1/DTD/svg11.dtd"><svg t="1555758803602" class="icon" style="" viewBox="0 0 1094 1024" version="1.1" xmlns="http://www.w3.org/2000/svg" p-id="1892" xmlns:xlink="http://www.w3.org/1999/xlink" width="213.671875" height="200"><defs><style type="text/css"></style></defs><path d="M1088 435.2c-4.266667-23.466667-27.733333-49.066667-51.2-53.333333l-17.066667-4.266667c-42.666667-12.8-78.933333-40.533333-102.4-81.066667-23.466667-40.533333-27.733333-87.466667-17.066666-130.133333l4.266666-17.066667c6.4-23.466667-2.133333-55.466667-21.333333-70.4 0 0-17.066667-14.933333-64-40.533333C772.266667 10.666667 750.933333 4.266667 750.933333 4.266667c-23.466667-8.533333-55.466667 0-72.533333 17.066666l-12.8 12.8c-32 29.866667-74.666667 49.066667-121.6 49.066667s-89.6-19.2-121.6-49.066667l-8.533333-12.8c-17.066667-17.066667-49.066667-25.6-72.533334-17.066666 0 0-21.333333 6.4-68.266666 34.133333s-64 40.533333-64 40.533333c-17.066667 17.066667-27.733333 46.933333-19.2 70.4l4.266666 17.066667c10.666667 42.666667 4.266667 89.6-19.2 130.133333-23.466667 40.533333-61.866667 68.266667-102.4 81.066667l-17.066666 4.266667c-23.466667 6.4-46.933333 29.866667-51.2 53.333333 0 0-4.266667 21.333333-4.266667 76.8s4.266667 76.8 4.266667 76.8c4.266667 23.466667 27.733333 49.066667 51.2 53.333333l17.066666 4.266667c42.666667 12.8 78.933333 40.533333 102.4 81.066667 23.466667 40.533333 29.866667 87.466667 19.2 130.133333l-4.266666 17.066667c-6.4 23.466667 2.133333 55.466667 21.333333 70.4 0 0 17.066667 14.933333 64 40.533333 46.933333 27.733333 68.266667 34.133333 68.266667 34.133333 23.466667 8.533333 55.466667 0 72.533333-17.066666l12.8-12.8c32-29.866667 74.666667-49.066667 121.6-49.066667s89.6 19.2 121.6 49.066667l10.666667 12.8c17.066667 17.066667 49.066667 25.6 72.533333 17.066666 0 0 21.333333-6.4 68.266667-34.133333s64-40.533333 64-40.533333c19.2-14.933333 27.733333-46.933333 21.333333-70.4l-8.533333-17.066667c-10.666667-42.666667-4.266667-89.6 19.2-130.133333 23.466667-40.533333 61.866667-68.266667 102.4-81.066667l17.066666-4.266667c23.466667-6.4 46.933333-29.866667 51.2-53.333333 0 0 4.266667-21.333333 4.266667-76.8-2.133333-55.466667-6.4-76.8-6.4-76.8zM546.133333 686.933333c-96 0-174.933333-78.933333-174.933333-174.933333 0-96 78.933333-174.933333 174.933333-174.933333 96 0 174.933333 78.933333 174.933334 174.933333 2.133333 98.133333-76.8 174.933333-174.933334 174.933333z" p-id="1893"></path></svg>