<?xml version="1.0" standalone="no"?><!DOCTYPE svg PUBLIC "-//W3C//DTD SVG 1.1//EN" "http://www.w3.org/Graphics/SVG/1.1/DTD/svg11.dtd"><svg t="1555759242162" class="icon" style="" viewBox="0 0 1024 1024" version="1.1" xmlns="http://www.w3.org/2000/svg" p-id="1658" xmlns:xlink="http://www.w3.org/1999/xlink" width="200" height="200"><defs><style type="text/css"></style></defs><path d="M392.53333333 503.46666667c134.82666667 0 244.05333333-107.52 244.05333334-238.93333334S527.36 25.6 392.53333333 25.6s-244.05333333 105.81333333-244.05333333 238.93333333S257.70666667 503.46666667 392.53333333 503.46666667z m160.42666667 63.14666666c11.94666667-10.24 6.82666667-29.01333333-8.53333333-30.72-13.65333333-1.70666667-10.24-3.41333333-25.6-3.41333333H329.38666667C145.06666667 532.48-6.82666667 684.37333333-6.82666667 868.69333333v124.58666667H605.86666667c-40.96-52.90666667-78.50666667-119.46666667-95.57333334-186.02666667-20.48-76.8-25.6-184.32 42.66666667-240.64z" p-id="1659"></path><path d="M713.38666667 638.29333333c0-44.37333333-37.54666667-81.92-85.33333334-81.92-46.08 0-85.33333333 35.84-85.33333333 81.92 0 22.18666667 8.53333333 40.96 23.89333333 56.32-3.41333333 15.36-6.82666667 32.42666667-6.82666666 49.49333334 0 76.8 42.66666667 145.06666667 105.81333333 182.61333333l17.06666667-66.56c-34.13333333-27.30666667-56.32-69.97333333-56.32-116.05333333 0-8.53333333 0-17.06666667 1.70666666-25.6 47.78666667 0 85.33333333-35.84 85.33333334-80.21333334z m73.38666666-44.37333333c29.01333333 0 56.32 6.82666667 80.21333334 20.48-3.41333333 8.53333333-5.12 18.77333333-5.12 29.01333333 0 44.37333333 37.54666667 81.92 83.62666666 81.92s85.33333333-35.84 85.33333334-81.92c0-44.37333333-37.54666667-81.92-85.33333334-81.92-10.24 0-22.18666667 1.70666667-30.72 5.12-35.84-23.89333333-80.21333333-39.25333333-128-39.25333333-32.42666667 0-63.14666667 6.82666667-90.45333333 18.77333333l39.25333333 52.90666667c15.36-3.41333333 32.42666667-5.12 51.2-5.12zM943.78666667 750.93333333c-1.70666667 54.61333333-35.84 102.4-83.62666667 126.29333334-13.65333333-25.6-42.66666667-44.37333333-75.09333333-44.37333334-46.08 0-85.33333333 35.84-85.33333334 81.92 0 44.37333333 37.54666667 81.92 85.33333334 81.92 35.84 0 64.85333333-20.48 78.50666666-49.49333333 87.04-30.72 148.48-109.22666667 148.48-201.38666667v-13.65333333l-68.26666666 18.77333333z m-230.4-112.64c0-44.37333333-37.54666667-81.92-85.33333334-81.92-46.08 0-85.33333333 35.84-85.33333333 81.92 0 22.18666667 8.53333333 40.96 23.89333333 56.32-3.41333333 15.36-6.82666667 32.42666667-6.82666666 49.49333334 0 76.8 42.66666667 145.06666667 105.81333333 182.61333333l17.06666667-66.56c-34.13333333-27.30666667-56.32-69.97333333-56.32-116.05333333 0-8.53333333 0-17.06666667 1.70666666-25.6 47.78666667 0 85.33333333-35.84 85.33333334-80.21333334z m73.38666666-44.37333333c29.01333333 0 56.32 6.82666667 80.21333334 20.48-3.41333333 8.53333333-5.12 18.77333333-5.12 29.01333333 0 44.37333333 37.54666667 81.92 83.62666666 81.92s85.33333333-35.84 85.33333334-81.92c0-44.37333333-37.54666667-81.92-85.33333334-81.92-10.24 0-22.18666667 1.70666667-30.72 5.12-35.84-23.89333333-80.21333333-39.25333333-128-39.25333333-32.42666667 0-63.14666667 6.82666667-90.45333333 18.77333333l39.25333333 52.90666667c15.36-3.41333333 32.42666667-5.12 51.2-5.12zM943.78666667 750.93333333c-1.70666667 54.61333333-35.84 102.4-83.62666667 126.29333334-13.65333333-25.6-42.66666667-44.37333333-75.09333333-44.37333334-46.08 0-85.33333333 35.84-85.33333334 81.92 0 44.37333333 37.54666667 81.92 85.33333334 81.92 35.84 0 64.85333333-20.48 78.50666666-49.49333333 87.04-30.72 148.48-109.22666667 148.48-201.38666667v-13.65333333l-68.26666666 18.77333333z m-230.4-112.64c0-44.37333333-37.54666667-81.92-85.33333334-81.92-46.08 0-85.33333333 35.84-85.33333333 81.92 0 22.18666667 8.53333333 40.96 23.89333333 56.32-3.41333333 15.36-6.82666667 32.42666667-6.82666666 49.49333334 0 76.8 42.66666667 145.06666667 105.81333333 182.61333333l17.06666667-66.56c-34.13333333-27.30666667-56.32-69.97333333-56.32-116.05333333 0-8.53333333 0-17.06666667 1.70666666-25.6 47.78666667 0 85.33333333-35.84 85.33333334-80.21333334z m73.38666666-44.37333333c29.01333333 0 56.32 6.82666667 80.21333334 20.48-3.41333333 8.53333333-5.12 18.77333333-5.12 29.01333333 0 44.37333333 37.54666667 81.92 83.62666666 81.92s85.33333333-35.84 85.33333334-81.92c0-44.37333333-37.54666667-81.92-85.33333334-81.92-10.24 0-22.18666667 1.70666667-30.72 5.12-35.84-23.89333333-80.21333333-39.25333333-128-39.25333333-32.42666667 0-63.14666667 6.82666667-90.45333333 18.77333333l39.25333333 52.90666667c15.36-3.41333333 32.42666667-5.12 51.2-5.12zM943.78666667 750.93333333c-1.70666667 54.61333333-35.84 102.4-83.62666667 126.29333334-13.65333333-25.6-42.66666667-44.37333333-75.09333333-44.37333334-46.08 0-85.33333333 35.84-85.33333334 81.92 0 44.37333333 37.54666667 81.92 85.33333334 81.92 35.84 0 64.85333333-20.48 78.50666666-49.49333333 87.04-30.72 148.48-109.22666667 148.48-201.38666667v-13.65333333l-68.26666666 18.77333333z" p-id="1660"></path></svg>