<?xml version="1.0" standalone="no"?><!DOCTYPE svg PUBLIC "-//W3C//DTD SVG 1.1//EN" "http://www.w3.org/Graphics/SVG/1.1/DTD/svg11.dtd"><svg t="1555759184190" class="icon" style="" viewBox="0 0 1024 1024" version="1.1" xmlns="http://www.w3.org/2000/svg" p-id="1782" xmlns:xlink="http://www.w3.org/1999/xlink" width="200" height="200"><defs><style type="text/css"></style></defs><path d="M357.67296 250.71502222c0-94.14656-79.51473778-170.53582222-177.71975111-170.53582222-98.06848 0.06826667-177.65148445 76.38812445-177.65148444 170.53582222 0 45.81944889 18.8928 87.43708445 49.54339555 118.14115556-8.35925333 33.61905778-12.70897778 68.59320889-12.70897778 104.6528 0 162.13105778 88.96170667 304.40220445 222.57436445 384.11150222l35.54417778-140.03427555C224.67242667 659.16017778 178.45816889 571.58769778 178.45816889 473.57724445c0-17.82670222 1.49504-35.31320889 4.48512-52.25813334 96.84536889-1.62702222 174.72967111-77.33816889 174.72967111-170.60408889z m152.43719111-95.23086222c61.43658667 0 118.86478222 15.99601778 168.27278222 43.98990222-7.81539555 19.18179555-11.96145778 39.99061333-11.96145778 61.74833778 0 94.21482667 79.51473778 170.53582222 177.58321778 170.53582222S1021.72444445 355.36896 1021.72444445 261.22126222s-79.65127111-170.53582222-177.71975112-170.53582222c-22.97059555 0-44.99000889 4.20181333-65.03879111 11.79420445C702.64490667 51.50947555 610.14926222 21.61777778 510.11015111 21.61777778c-67.68981333 0-132.04935111 13.75914667-190.22392889 38.43185777l81.21457778 112.99043556c34.11626667-11.38801778 70.81528889-17.55591111 109.00935111-17.55591111zM841.21827555 487.81084445c-5.30090667 115.90428445-75.36981333 215.74542222-176.29184 267.05464888-29.35921778-55.24138667-89.23363555-93.06225778-158.28195555-93.06225778-98.20387555 0-177.71975111 76.38812445-177.71975111 170.53582223s79.51473778 170.60295111 177.71975111 170.60295111c73.60284445 0 136.94293333-43.04099555 163.71939555-104.31374222 181.18542222-62.96803555 310.58375111-229.57169778 310.58375112-425.05102222 0-10.03178667-0.40732445-19.92704-1.08771556-29.75516445L841.21827555 487.81084445z" p-id="1783"></path></svg>