<?xml version="1.0" standalone="no"?><!DOCTYPE svg PUBLIC "-//W3C//DTD SVG 1.1//EN" "http://www.w3.org/Graphics/SVG/1.1/DTD/svg11.dtd"><svg t="1555758942104" class="icon" style="" viewBox="0 0 1024 1024" version="1.1" xmlns="http://www.w3.org/2000/svg" p-id="2127" xmlns:xlink="http://www.w3.org/1999/xlink" width="200" height="200"><defs><style type="text/css"></style></defs><path d="M967.112683 142.222281c-85.333573 0-142.223488-56.888716-142.223488-142.222289L512.00056 28.445849 199.110125-8.0e-06c0 85.333573-56.887716 142.222289-142.22029 142.222289C-8.0e-05 796.443211 512.00056 1024.000272 512.00056 1024.000272S1024.002398 796.443211 967.112683 142.222281zM606.572051 426.261334l113.169045 0 0 101.287524-149.343047 0 0 44.136587 149.343047 0 0 102.069193-149.343047 0 0 122.688572-116.966063 0 0-122.688572-154.830116 0 0-102.069193 154.830116 0 0-44.136587-154.830116 0 0-101.287524 117.259863 0L254.759484 149.527313l133.424871 0c0 0 102.320022 188.89715 125.618979 235.577008 7.434145-15.015789 126.497782-235.577008 126.497782-235.577008l128.94072 0L606.572051 426.261334z" p-id="2128"></path></svg>